PathFileType  4	(X/Y/Z) c:\opencap-core-main\examples\Data\81a20db3-8b24-463d-8a5a-854c37a24678\MarkerData\PreAugmentation
DataRate	CameraRate	NumFrames	NumMarkers	Units	OrigDataRate	OrigDataStartFrame	OrigNumFrames
60.0	60.0	12	20	m	60.0	519	592
Frame#	Time	Neck			RShoulder			RElbow			RWrist			LShoulder			LElbow			LWrist			midHip			RHip			RKnee			RAnkle			LHip			LKnee			LAnkle			LBigToe			LSmallToe			LHeel			RBigToe			RSmallToe			RHeel			
		X1	Y1	Z1	X2	Y2	Z2	X3	Y3	Z3	X4	Y4	Z4	X5	Y5	Z5	X6	Y6	Z6	X7	Y7	Z7	X8	Y8	Z8	X9	Y9	Z9	X10	Y10	Z10	X11	Y11	Z11	X12	Y12	Z12	X13	Y13	Z13	X14	Y14	Z14	X15	Y15	Z15	X16	Y16	Z16	X17	Y17	Z17	X18	Y18	Z18	X19	Y19	Z19	X20	Y20	Z20	

519	8.6333333	0.1707700	1.2087200	-0.1028000	0.1527400	1.1925300	0.1101300	0.0968400	0.9186700	0.1755600	0.2023900	0.6900000	0.1105700	0.1879500	1.2191000	-0.3158700	0.1307000	0.9305600	-0.4000900	0.2280000	0.7034100	-0.3867100	0.0992200	0.6743600	-0.0927500	0.1012700	0.6751500	0.0461700	0.0534800	0.2938300	-0.0047300	-0.0113300	-0.1343400	0.0176300	0.1093700	0.6733800	-0.2391100	0.0823500	0.2912200	-0.2062600	-0.0355600	-0.1406600	-0.2399600	0.1396400	-0.2108900	-0.2681000	0.1027000	-0.2031100	-0.3369600	-0.0605500	-0.1808400	-0.2680800	0.1507100	-0.1975900	0.0443300	0.1259000	-0.1884000	0.0925600	-0.0577300	-0.1869300	0.0267000
520	8.6500000	0.1622900	1.2103800	-0.0970400	0.1511300	1.1917800	0.1134100	0.0957400	0.9198300	0.1727400	0.1987900	0.6881600	0.1113400	0.1850600	1.2188100	-0.3148600	0.1282400	0.9327300	-0.4058900	0.2317700	0.7052900	-0.3872200	0.1018900	0.6720900	-0.0963200	0.1041600	0.6729500	0.0413100	0.0550000	0.2957100	-0.0016000	-0.0114400	-0.1329300	0.0188800	0.1095300	0.6728400	-0.2392400	0.0822300	0.2909700	-0.2068600	-0.0356000	-0.1406900	-0.2399600	0.1390000	-0.2112000	-0.2648100	0.1013900	-0.2036200	-0.3356000	-0.0605800	-0.1808100	-0.2680700	0.1506100	-0.1955400	0.0459800	0.1258800	-0.1883800	0.0925200	-0.0576500	-0.1869800	0.0267300
521	8.6666667	0.1559700	1.2121000	-0.0919400	0.1510400	1.1929300	0.1137700	0.0958000	0.9210500	0.1723400	0.1965500	0.6847300	0.1098700	0.1850000	1.2191500	-0.3147700	0.1257300	0.9360700	-0.4120300	0.2333400	0.7084100	-0.3861200	0.1037900	0.6704400	-0.0999500	0.1056100	0.6699600	0.0361500	0.0560500	0.2961700	0.0001300	-0.0113900	-0.1330300	0.0188400	0.1094800	0.6709400	-0.2401300	0.0819400	0.2922100	-0.2068000	-0.0356200	-0.1406300	-0.2399700	0.1389700	-0.2113400	-0.2611600	0.0995700	-0.2043300	-0.3336600	-0.0606900	-0.1791000	-0.2667500	0.1506300	-0.1955800	0.0459300	0.1259000	-0.1883800	0.0925100	-0.0576500	-0.1870100	0.0267300
522	8.6833333	0.1512200	1.2164100	-0.0901600	0.1493100	1.1974300	0.1090900	0.0939900	0.9213900	0.1698000	0.1932600	0.6827800	0.1137100	0.1842200	1.2223300	-0.3173200	0.1247600	0.9402200	-0.4156200	0.2338100	0.7102600	-0.3851600	0.1042700	0.6702600	-0.1025700	0.1074500	0.6695100	0.0320700	0.0563700	0.2957900	0.0010800	-0.0113600	-0.1333000	0.0186200	0.1095500	0.6701100	-0.2405300	0.0820400	0.2930000	-0.2062900	-0.0356400	-0.1406400	-0.2399000	0.1405600	-0.2108400	-0.2622100	0.0992500	-0.2044300	-0.3333500	-0.0607800	-0.1766400	-0.2648500	0.1507400	-0.1975700	0.0442700	0.1259300	-0.1884000	0.0925200	-0.0575500	-0.1871500	0.0267400
523	8.7000000	0.1456100	1.2222200	-0.0902800	0.1459000	1.2018900	0.1033700	0.0903900	0.9223300	0.1655900	0.1838900	0.6853100	0.1273500	0.1814700	1.2264700	-0.3224100	0.1250000	0.9426900	-0.4163700	0.2315100	0.7100600	-0.3897900	0.1041500	0.6718100	-0.1028800	0.1119500	0.6717700	0.0298200	0.0583400	0.2961700	0.0028400	-0.0113400	-0.1333200	0.0186400	0.1095800	0.6726600	-0.2407200	0.0821800	0.2925300	-0.2063100	-0.0356200	-0.1409700	-0.2396800	0.1421300	-0.2100500	-0.2643700	0.0992000	-0.2044300	-0.3333600	-0.0607300	-0.1768600	-0.2649700	0.1508100	-0.1985800	0.0434800	0.1259200	-0.1884100	0.0925600	-0.0575400	-0.1872000	0.0267400
524	8.7166667	0.1413500	1.2264800	-0.0879000	0.1431500	1.2045400	0.1040000	0.0874500	0.9248200	0.1663600	0.1721300	0.6908900	0.1453100	0.1783200	1.2283600	-0.3280700	0.1251800	0.9419600	-0.4158300	0.2279300	0.7094100	-0.3969300	0.1038100	0.6749900	-0.1013900	0.1186500	0.6744700	0.0290200	0.0616600	0.2970100	0.0026500	-0.0113600	-0.1332600	0.0186800	0.1098200	0.6768200	-0.2413100	0.0821400	0.2911500	-0.2070100	-0.0355300	-0.1406800	-0.2398700	0.1424000	-0.2100000	-0.2647800	0.0992500	-0.2044200	-0.3334500	-0.0605900	-0.1793100	-0.2668200	0.1507400	-0.1973600	0.0445400	0.1259000	-0.1884200	0.0926000	-0.0575400	-0.1871900	0.0267300
525	8.7333333	0.1396300	1.2275600	-0.0855500	0.1407000	1.2056400	0.1084900	0.0847900	0.9256100	0.1706900	0.1641500	0.6952900	0.1592200	0.1758700	1.2307700	-0.3335600	0.1249700	0.9402600	-0.4153300	0.2262400	0.7093000	-0.4001700	0.1042400	0.6781400	-0.1018500	0.1249300	0.6779000	0.0228700	0.0613100	0.2967200	-0.0011100	-0.0113500	-0.1332500	0.0186700	0.1097700	0.6822800	-0.2424100	0.0821200	0.2897500	-0.2076900	-0.0353400	-0.1387900	-0.2410500	0.1423400	-0.2116000	-0.2655900	0.1013600	-0.2036400	-0.3356400	-0.0605600	-0.1795700	-0.2670300	0.1507400	-0.1973600	0.0445800	0.1258900	-0.1884300	0.0926300	-0.0575900	-0.1871000	0.0267200
526	8.7500000	0.1367900	1.2262900	-0.0903700	0.1354500	1.2059900	0.1049300	0.0792400	0.9242800	0.1676400	0.1607300	0.6949800	0.1658000	0.1734400	1.2353700	-0.3384300	0.1246600	0.9385800	-0.4148300	0.2262400	0.7092000	-0.4002600	0.1058900	0.6790700	-0.1051600	0.1285900	0.6802600	0.0106800	0.0562500	0.2939000	-0.0052200	-0.0113300	-0.1332700	0.0186400	0.1097600	0.6844700	-0.2431400	0.0821500	0.2893300	-0.2078000	-0.0351500	-0.1374700	-0.2419000	0.1426800	-0.2141600	-0.2676000	0.1045300	-0.2024300	-0.3389800	-0.0606500	-0.1771300	-0.2651700	0.1509200	-0.2000200	0.0424200	0.1258800	-0.1884400	0.0926300	-0.0575700	-0.1871100	0.0267200
527	8.7666667	0.1315800	1.2249400	-0.1011600	0.1289600	1.2056400	0.0946500	0.0725900	0.9224000	0.1582800	0.1602900	0.6921900	0.1679800	0.1693900	1.2385200	-0.3410900	0.1244200	0.9362700	-0.4141300	0.2267900	0.7092700	-0.3992800	0.1068200	0.6781200	-0.1071200	0.1297100	0.6799900	0.0042600	0.0528500	0.2909700	-0.0070400	-0.0113700	-0.1332500	0.0186300	0.1096700	0.6809500	-0.2420300	0.0821800	0.2894400	-0.2076300	-0.0352600	-0.1388200	-0.2409800	0.1429700	-0.2157100	-0.2689500	0.1045300	-0.2024300	-0.3390000	-0.0607600	-0.1753600	-0.2638600	0.1510400	-0.2020700	0.0407400	0.1258800	-0.1884500	0.0926100	-0.0577200	-0.1869700	0.0266900
528	8.7833333	0.1266400	1.2245600	-0.1095000	0.1278100	1.2038300	0.0924900	0.0706700	0.9210300	0.1551000	0.1602300	0.6909400	0.1694000	0.1632900	1.2364300	-0.3414200	0.1243700	0.9346900	-0.4136100	0.2280600	0.7106300	-0.3961500	0.1069000	0.6782600	-0.1058400	0.1310000	0.6797000	0.0075600	0.0563600	0.2918400	-0.0059100	-0.0113600	-0.1333000	0.0186400	0.1094600	0.6760200	-0.2389900	0.0822700	0.2893700	-0.2075800	-0.0354400	-0.1410100	-0.2395800	0.1430000	-0.2159700	-0.2691500	0.1010900	-0.2037900	-0.3353800	-0.0606800	-0.1754200	-0.2638200	0.1509600	-0.2021000	0.0406700	0.1258700	-0.1884500	0.0925900	-0.0577400	-0.1869700	0.0266600
529	8.8000000	0.1219200	1.2250200	-0.1115300	0.1313600	1.2015600	0.0985600	0.0723600	0.9218400	0.1575900	0.1569200	0.6905400	0.1704100	0.1568500	1.2331400	-0.3396900	0.1246200	0.9341600	-0.4131000	0.2288200	0.7128900	-0.3934000	0.1096900	0.6796400	-0.1042500	0.1334000	0.6798500	0.0106800	0.0628500	0.2951200	-0.0041000	-0.0113900	-0.1332900	0.0186600	0.1093700	0.6755200	-0.2377200	0.0823200	0.2893200	-0.2076700	-0.0354500	-0.1409900	-0.2396000	0.1429100	-0.2154100	-0.2686500	0.0989700	-0.2046500	-0.3331100	-0.0606300	-0.1757500	-0.2640300	0.1509100	-0.2017600	0.0409500	0.1258700	-0.1884400	0.0925700	-0.0577300	-0.1870000	0.0266400
530	8.8166667	0.1164200	1.2263800	-0.1112000	0.1302300	1.2012500	0.0964400	0.0715700	0.9240000	0.1560600	0.1511500	0.6882900	0.1713200	0.1520700	1.2333300	-0.3367700	0.1245700	0.9344200	-0.4133100	0.2277400	0.7142800	-0.3947100	0.1158100	0.6791100	-0.1054100	0.1352000	0.6779100	0.0086300	0.0645700	0.2956800	-0.0064900	-0.0114100	-0.1332700	0.0186600	0.1111000	0.6761900	-0.2422900	0.0823300	0.2893000	-0.2078300	-0.0352500	-0.1387900	-0.2410400	0.1427200	-0.2138900	-0.2674300	0.1008100	-0.2039300	-0.3350000	-0.0606400	-0.1758000	-0.2640800	0.1509100	-0.2017200	0.0409700	0.1259000	-0.1884200	0.0925600	-0.0577900	-0.1869500	0.0266200
